# xmcd CD database file
#
# Track frame offsets:
#	150
#	13869
#	27268
#	42135
#	55377
#	64790
#	80806
#	94269
#	103314
#	122500
#	131656
#	146011
#	157662
#	168463
#	178973
#
# Disc length: 2574 seconds
#
# Revision: 2
# Processed by: cddbd v1.5.2PL0 Copyright (c) Steve Scherf et al.
# Submitted via: CDex 2.12
#
DISCID=d20a0c0f
DTITLE=Michael Roach - Innocent Child
DYEAR=2010
DGENRE=Blues
TTITLE0=Innocent Child
TTITLE1=What's The Matter Blues
TTITLE2=Mystery Train
TTITLE3=Remember Me
TTITLE4=Be A Man
TTITLE5=Got The Blues And Can't Be Satisfied
TTITLE6=Jesus Knows I'm Coming
TTITLE7=What Shall I Do
TTITLE8=Noah
TTITLE9=Honky Tonk Blues
TTITLE10=Music At The Close Of The Day
TTITLE11=DC Girls
TTITLE12=Midnight Train
TTITLE13=Didn't It Rain
TTITLE14=Stagerlee
EXTD=YEAR: 2010
EXTT0=
EXTT1=
EXTT2=
EXTT3=
EXTT4=
EXTT5=
EXTT6=
EXTT7=
EXTT8=
EXTT9=
EXTT10=
EXTT11=
EXTT12=
EXTT13=
EXTT14=
PLAYORDER=
